<svg width="1475" height="725" viewBox="0 0 1475 725" fill="none" xmlns="http://www.w3.org/2000/svg">
<g clip-path="url(#clip0_2123_391)">
<path fill-rule="evenodd" clip-rule="evenodd" d="M112.6 209.8C125.5 209 135.7 202.9 142.2 195.6C149 188 154.5 177.7 153.5 163.2C152.7 149.9 146.8 140 139.4 133.4C132 126.7 121.1 121.2 106.8 122.1C103.7 122.3 100.2 122.8 97.3 123.7C88.8 126.2 82 130.8 77 136.4C70.3 143.7 65 154.6 65.8 168.9C66.5 182 72.8 192 80.1 198.6C87.5 205.3 98.6 210.6 112.6 209.8Z" fill="url(#paint0_linear_2123_391)"/>
<path fill-rule="evenodd" clip-rule="evenodd" d="M567.3 126.5C560.1 119.7 549.1 114.1 535.1 114.7C531.8 114.9 528.5 115.4 525.5 116.2C516.7 118.6 510.1 123.1 504.9 128.6C498.1 135.8 492.5 146.4 493.2 160.8C493.8 173.9 499.9 184.2 507.2 190.8C514.7 197.6 525.5 203.2 539.3 202.4C552.8 201.7 562.3 196.2 569.4 188.6C576.1 181.4 581.9 170.8 581.2 156.5C580.5 143.3 574.5 133.3 567.3 126.5Z" fill="url(#paint1_linear_2123_391)"/>
<path fill-rule="evenodd" clip-rule="evenodd" d="M495.4 331.9C528.9 328.4 557.6 318.6 581.4 304.2V279.2C581.4 274.2 581.6 269.4 581.4 264.9C581.2 260.5 580.2 256.5 579 253.1C574.2 239.5 563.7 229.5 549.4 225.7C541.4 223.6 531.8 224.2 524.6 226.6C510.9 231.2 500.9 241.7 496.9 255.8C494.8 263.4 495.4 273.3 495.4 282.8C495.4 299.6 495.8 315.5 495.4 331.9Z" fill="url(#paint2_linear_2123_391)"/>
<path fill-rule="evenodd" clip-rule="evenodd" d="M148.2 251C144.6 241.9 138.9 235.1 131.1 230.3C123.9 225.8 112.8 222.1 100.5 224.4C90.1 226.3 82.1 231.4 76.3 237.9C70.5 244.5 65.9 252.5 65.3 264.6H65.2V287.8C87.2 272.3 115.2 259.6 149.8 256.4C149.4 254.6 148.9 252.8 148.2 251Z" fill="url(#paint3_linear_2123_391)"/>
<path d="M108 542.6H107.8C103.6 574.8 72.3 606.7 62.5 634.9C62.3 635.4 62.1 635.9 61.9 636.4C61.4 637.8 61 639.2 60.7 640.6C59.6 644.4 59 648.2 59.2 652C60.2 674.3 75.6 691.7 97.5 695.6C100.9 696.3 104.4 696.7 107.9 696.7H108.1C134.3 697 155.5 677.3 156.5 651.5C157.9 619.7 113.1 581.3 108 542.6Z" fill="url(#paint4_linear_2123_391)"/>
<path d="M294.5 331.4C294.5 331.4 294.4 331.4 294.4 331.3V362.3H294.5V331.4Z" fill="url(#paint5_linear_2123_391)"/>
<path d="M439.4 456.8C440.7 451 443.4 446.5 446.9 442.9C451.6 438.2 458.1 434.5 467 434.5C476 434.5 482.5 438.1 487.2 442.8C490.9 446.5 493.6 450.7 495 456.5C495.5 458.5 495.5 460.6 495.5 463.1V467.2C495.9 464.6 496.2 462 496.3 459.8C496.1 462 495.8 464.6 495.5 467.2V505.9C495.5 510.7 495.3 515.4 496 519.7C497.3 527.7 500.4 534.3 504.5 539.7C512.2 549.6 526.4 558.3 544.5 555.7C552.5 554.6 559.2 551.4 564.6 547.2C572.6 541.1 578.8 532.4 580.9 520.7C581.6 516.8 581.5 512.1 581.5 507V373C626.7 333.1 641 278.6 641 278.6C627.9 301.8 609.5 321.3 586.1 335.9C557.8 353.7 521.7 363.8 478.6 364.3C434.9 369 439 408 439 408V461.1C439 460.8 439.1 460.4 439.1 460.1C439.2 459.1 439.1 457.9 439.4 456.8Z" fill="url(#paint6_linear_2123_391)"/>
<path d="M148.7 284.7C142.5 285.2 136.5 286 130.7 287.1C136.8 286.1 142.8 285.3 148.7 284.7Z" fill="url(#paint7_linear_2123_391)"/>
<path d="M148.7 284.7C152.1 284.4 155.5 284.2 159 284C156.4 284 153.6 284.1 150.7 284.4C150.1 284.5 149.4 284.6 148.7 284.7Z" fill="url(#paint8_linear_2123_391)"/>
<path d="M294.4 320.6V320.5C287.7 317.6 281.1 314.6 274.2 311.3C230 290.3 191.8 283 159 284C177.6 284.2 189.1 292.2 196.2 301.9C197.4 303.5 198.4 305.1 199.3 306.8C199.8 307.7 200.3 308.5 200.7 309.4C201.2 310.4 201.7 311.5 202.2 312.5C202.6 313.4 203 314.3 203.3 315.3C203.7 316.3 204 317.2 204.3 318.1C204.6 319 204.9 320 205.2 320.9C205.5 321.8 205.7 322.6 205.9 323.4C206.1 324.3 206.3 325.1 206.5 325.9C206.7 326.7 206.8 327.4 206.9 328.1C207 328.8 207.2 329.6 207.3 330.3C207.4 330.9 207.5 331.5 207.5 332C207.6 332.6 207.7 333.2 207.7 333.7C207.8 334.3 207.8 334.7 207.8 335.1C207.8 335.3 207.9 335.7 207.9 335.9C207.9 336.4 207.9 336.7 207.9 336.7V337.5V417.6C207.9 417.8 208 418 208 418.2C208 418.6 208 419.1 208 419.5C208.1 421.5 208.1 423.6 208 425.6C208 443.1 208.2 460.8 208.2 478.5V534.3C208.2 541.1 207.8 547.9 208.3 554.4C208.8 560.3 210.4 565.5 212.7 570.1C219.5 583.6 230.9 592.2 249.3 594H253C264.9 593.2 273.1 589 279.9 583.1C286.3 577.5 291.6 569.1 293.5 558.9C294.5 553.3 294.3 547.1 294.3 540.8C294.3 487.2 294.2 478.2 294.2 424.4H294.3V390.4H294.2V365.8C297.1 327.6 342.7 341.5 342.7 341.5C335.4 338.1 315 329.3 294.4 320.6Z" fill="url(#paint9_linear_2123_391)"/>
<path d="M398.9 138.8C412.2 137.9 421.5 132.1 428.5 124.5C435.4 117 440.7 106.3 439.8 92.0999C439 78.6999 432.8 69.0999 425.5 62.3999C418.3 55.7999 407.2 50.0999 392.9 50.9999C389.7 51.1999 386.2 51.7999 383.4 52.5999C374.8 55.0999 368.2 59.7999 363.2 65.3999C356.5 72.8999 350.9 83.1999 352 97.8999C353 111.2 358.5 120.6 366.3 127.5C373.8 134.2 384.4 139.7 398.9 138.8Z" fill="url(#paint10_linear_2123_391)"/>
<path d="M478.6 364.5C442.1 365 400.6 358.7 353.7 343.4V390.6H353.6V495.2C354.4 501.3 356 506.8 358.6 511.2C362.1 517.1 366.7 522.1 372.6 525.7C378.5 529.4 385.3 532.2 394.3 532.5C403.6 532.9 411.2 530.4 417.2 527C423.3 523.6 428.2 518.8 431.8 513.2C435.6 507.4 438.3 501.1 438.8 491.7C439.3 482.9 438.9 473.6 438.9 463.3C438.9 462.5 439 461.9 439.1 461.3V408.2C439 408.1 435 369.1 478.6 364.5Z" fill="url(#paint11_linear_2123_391)"/>
<path d="M312.9 295.8C324.5 303 338.8 308.9 353.7 313.7V313.9C355.7 314.5 357.6 315 359.6 315.6C360 315.7 360.3 315.8 360.7 315.9C388.5 324.9 427 333.6 474.1 334.1C474.1 334.1 439.2 328.1 439.2 291C439.2 289.9 438.9 289.2 438.9 288.1V233C438.9 223 439.4 213.3 438.8 204.6C437.6 187.6 428.6 176.2 416.8 169.6C410.8 166.2 402.8 163.8 393.6 164.3C384.5 164.8 377.9 167.4 372.1 171.2C366 175.3 360.9 180.8 357.5 187.8C357.4 187.9 357.3 188 357.2 188.2C355.9 190.8 354.6 195.3 353.7 200V271.5C353.7 302.6 311.7 295.1 311.7 295.1C311.7 295.1 312.2 295.4 312.9 295.8Z" fill="url(#paint12_linear_2123_391)"/>
<path d="M253 111.5C266.9 111.5 276.3 106 283.9 99C287.6 95.6 290.6 91.2 292.9 86.3C295.2 81.3 297 75.4 297 68.7C297 54.4 291.9 44.9 284.9 37.3C278 29.7 268.6 24.6 255.2 23.7V23.6H250.8C237.5 24.8 228.1 29.7 221.1 37.3C214.4 44.7 208.4 54.8 209.1 68.5C209.7 82.1 214.6 91.8 222.1 99C229.4 105.7 239.1 111.5 253 111.5Z" fill="url(#paint13_linear_2123_391)"/>
<path d="M276.6 142.8C269.4 137.7 259.3 133.7 247.2 134.9C236.2 136.1 227.8 140.7 221.5 147C215.2 153.3 210.4 161 208.8 172.1C208 177.9 208.4 184.1 208.4 190.6C208.4 199.4 208.4 208.5 208.3 217.4C204 254.6 172.5 255.6 172.5 255.6C202.7 255.2 242.5 269.2 268.3 279.7C271 280.9 273.6 282 276.4 283.3C282.5 286.2 288.4 288.6 294.3 291.2V178.5C294.1 173.4 293.6 168.7 292.4 164.7C289.3 154.9 283.9 148 276.6 142.8Z" fill="url(#paint14_linear_2123_391)"/>
<path d="M208.1 335.9C208.1 335.7 208.1 335.4 208 335.1C208 334.7 207.9 334.3 207.9 333.7C207.8 333.2 207.8 332.6 207.7 332C207.6 331.4 207.6 330.9 207.5 330.3C207.4 329.6 207.3 328.9 207.1 328.1C207 327.4 206.8 326.7 206.7 325.9C206.5 325.1 206.3 324.2 206.1 323.4C205.9 322.6 205.7 321.7 205.4 320.9C205.1 320 204.8 319.1 204.5 318.1C204.2 317.2 203.8 316.2 203.5 315.3C203.1 314.4 202.8 313.5 202.4 312.5C201.9 311.5 201.4 310.4 200.9 309.4C200.5 308.5 200 307.7 199.5 306.8C199.2 306.4 199.1 305.9 198.8 305.5C198.8 305.5 198.7 305.5 198.7 305.6C197.9 304.4 197.3 303.2 196.4 302C188.2 290.9 174.4 282.1 150.9 284.4C144.4 285.1 137.7 286 130.8 287.1C98 293.5 71.7 308.3 51.6 324.8C16.2 353.9 -0.200012 387.9 -0.200012 387.9C15 379.4 34.6 361.7 65.3 348.4V480.2C66.4 492.6 70.8 501.4 77.5 508.2C84.2 514.9 92.9 520 105.1 521C118.1 522 128.3 517.3 135.6 511.3C143 505.3 148.5 496.9 150.6 485.9C151.6 480.1 151.3 473.3 151.3 466.4V425.6C151.3 422 151.1 418.7 151.4 415.6C151.7 412.6 152.5 410 153.5 407.6C157.3 398.6 165.2 391.5 176.4 390.1C182.9 389.3 188.6 391 193 393.2C197.5 395.5 201 398.8 203.7 402.7C206.2 406.6 208.1 411.4 208.3 417.2C208 411 207.2 405.3 206.2 399.8C207.2 405.2 208 411 208.3 417.2C208.3 417.2 208.3 417.4 208.3 417.5V337.4V336.6C208.1 336.7 208.1 336.4 208.1 335.9Z" fill="url(#paint15_linear_2123_391)"/>
<path d="M847.8 204.8H827.4L811.6 164.7L798.1 124.4L784.8 165L769.3 204.7H748.9L702 77.2999H729L759.1 169.3L790.1 77.2999H805.8L837.7 169.3L866.8 77.2999H893.8L847.8 204.8Z" fill="url(#paint16_linear_2123_391)"/>
<path d="M998.9 180.8H932.2L921.3 204.8H895.2L952.4 77.2999H978.6L1035.8 204.8H1009.6L998.9 180.8ZM965.6 104.1L941.9 158.4H989.3L965.6 104.1Z" fill="url(#paint17_linear_2123_391)"/>
<path d="M1058.8 99.1H1018.4V77.2C1055.2 77.2 1086.3 77.2 1123.3 77.2V99.1H1082.9V204.8H1058.8V99.1Z" fill="url(#paint18_linear_2123_391)"/>
<path d="M1232.9 204.8H1137.4C1137.4 162.4 1137.4 119.7 1137.4 77.2999H1232.9V100.6H1161.3V129.9H1230.4V152.3H1161.3V181.1H1232.9V204.8Z" fill="url(#paint19_linear_2123_391)"/>
<path d="M1364.6 204.8H1336L1298.8 162.2H1275.7V204.8H1251.6V77.1C1271.8 77.1 1292.1 77.3 1312.3 77.3C1342.4 77.5 1358.2 97.5 1358.2 119.6C1358.2 137.1 1350.2 154.8 1326 159.7L1364.6 203.2V204.8ZM1275.7 99.7V140.5H1312.3C1327.6 140.5 1334.2 130.3 1334.2 120.1C1334.2 109.9 1327.5 99.7 1312.3 99.7H1275.7Z" fill="url(#paint20_linear_2123_391)"/>
<path d="M951.4 244.4V317.4C951.4 355.1 928.3 374.4 896.2 374.4C865.6 374.4 839.5 355.8 839.5 317.4V244.4H863.4V317.4C863.4 340.4 876.5 352.6 896.4 352.6C916.3 352.6 927.6 339.3 927.6 317.4V244.4H951.4Z" fill="url(#paint21_linear_2123_391)"/>
<path d="M1053.6 275C1049.2 267.7 1037.2 260.8 1023.3 260.8C1005.4 260.8 996.9 268.3 996.9 277.8C996.9 288.9 1010 292 1025.3 293.8C1051.9 297.1 1076.7 304 1076.7 334.4C1076.7 362.8 1051.5 375 1023.1 375C997 375 977 367 967.5 343.7L987.5 333.3C993.1 347.3 1007.9 353.5 1023.4 353.5C1038.5 353.5 1052.7 348.2 1052.7 334.4C1052.7 322.4 1040.1 317.4 1023.2 315.6C997.1 312.5 973.1 305.6 973.1 277C973.1 250.8 999 240 1022.5 239.8C1042.4 239.8 1062.9 245.5 1072.6 265.1L1053.6 275Z" fill="url(#paint22_linear_2123_391)"/>
<path d="M1128.2 266.1H1087.8V244.2C1124.6 244.2 1155.8 244.2 1192.7 244.2V266.1H1152.3V371.8H1128.2V266.1Z" fill="url(#paint23_linear_2123_391)"/>
<path d="M1207.4 371.8V244.2H1231.3V371.7H1207.4V371.8Z" fill="url(#paint24_linear_2123_391)"/>
<path d="M1366.3 355.7C1353.2 368.6 1336.2 374.6 1317.8 374.6C1270.4 374.6 1250.4 342 1250.2 308.8C1250 275.5 1271.7 241.6 1317.8 241.6C1335.1 241.6 1351.5 248.2 1364.6 261.1L1348.6 276.6C1340.2 268.4 1328.9 264.6 1317.8 264.6C1287 264.6 1273.7 287.6 1273.9 308.9C1274.1 330 1286.3 352.1 1317.8 352.1C1328.9 352.1 1341.5 347.5 1349.9 339.1L1366.3 355.7Z" fill="url(#paint25_linear_2123_391)"/>
<path d="M1474.8 371.8H1379.3C1379.3 329.4 1379.3 286.7 1379.3 244.3H1474.8V267.6H1403.2V296.9H1472.3V319.3H1403.2V348.1H1474.8V371.8Z" fill="url(#paint26_linear_2123_391)"/>
<path d="M797 538.9V487.3H734.3V538.9H710.2V411.4H734.3V465.1H797V411.4H820.9V538.9H797Z" fill="url(#paint27_linear_2123_391)"/>
<path d="M955.2 411.4V484.4C955.2 522.1 932.1 541.4 900 541.4C869.4 541.4 843.3 522.8 843.3 484.4V411.4H867.2V484.4C867.2 507.4 880.3 519.6 900.2 519.6C920.1 519.6 931.4 506.3 931.4 484.4V411.4H955.2Z" fill="url(#paint28_linear_2123_391)"/>
<path d="M1082.4 448.1C1082.4 457.9 1077.7 467.4 1065.8 472.7C1080.7 477.2 1086.2 493.1 1086.2 501.1C1086.2 529.5 1064.9 538.6 1038.5 538.6C1018.3 538.6 998.2 538.6 978 538.6V411.2C998 411.2 1018.3 411.2 1038.5 411.2C1063.6 411.2 1082.4 422.5 1082.4 448.1ZM1001.6 462.4H1038.4C1053.5 462.4 1058.4 456 1058.4 448.7C1058.4 442.9 1053.7 433 1038.4 433H1001.6V462.4ZM1001.6 516.3H1038.4C1048.2 516.3 1062.3 513 1062.3 501C1062.3 489.5 1048.3 483.5 1038.4 483.5H1001.6V516.3Z" fill="url(#paint29_linear_2123_391)"/>
<path d="M792.9 244.2V266.6V317.2C792.9 336.5 782.7 351.6 760.9 351.6C739.2 351.6 728.7 340.5 728.7 318.6H705C705 354.7 728.3 374.2 760.9 374.2C796.1 374.2 817 350.1 817 317.2V244.1C808.9 244.2 800.9 244.2 792.9 244.2Z" fill="url(#paint30_linear_2123_391)"/>
<path d="M712.6 628.5L702.9 589H710.6L714.4 606.9C715.4 611.7 716.3 616.7 717 620.7H717.1C717.7 616.5 718.9 611.9 720 606.9L724.3 589H731.9L735.8 607.2C736.8 611.9 737.6 616.3 738.2 620.6H738.3C739 616.3 739.9 611.8 741 606.9L745 589H752.3L741.7 628.5H734L729.9 609.9C728.9 605.4 728.2 601.6 727.7 597.4H727.6C726.9 601.6 726.1 605.4 725 609.9L720.4 628.5H712.6Z" fill="url(#paint31_linear_2123_391)"/>
<path d="M767.7 617.3L764.3 628.5H756.9L769.6 589H778.8L791.6 628.5H783.9L780.3 617.3H767.7ZM779 611.9L775.9 602.2C775.1 599.8 774.5 597.1 773.9 594.8H773.8C773.2 597.1 772.6 599.8 771.9 602.2L768.9 611.9H779Z" fill="url(#paint32_linear_2123_391)"/>
<path d="M805.7 595H794.5V589H824.3V595H812.9V628.5H805.7V595Z" fill="url(#paint33_linear_2123_391)"/>
<path d="M856.9 611H842V622.6H858.6V628.5H834.8V589H857.8V594.9H842V605.1H856.9V611Z" fill="url(#paint34_linear_2123_391)"/>
<path d="M870.8 589.5C873.5 589 877.5 588.7 881.7 588.7C887.4 588.7 891.2 589.6 893.9 591.9C896.1 593.7 897.3 596.5 897.3 599.8C897.3 604.9 893.8 608.4 890.2 609.7V609.9C893 611 894.7 613.7 895.7 617.5C896.9 622.4 898 627 898.8 628.5H891.4C890.8 627.3 889.9 624.1 888.8 619.2C887.7 614 885.8 612.4 881.7 612.3H878V628.5H870.9V589.5H870.8ZM878 607H882.3C887.2 607 890.2 604.4 890.2 600.5C890.2 596.2 887.2 594.2 882.5 594.2C880.2 594.2 878.7 594.4 878 594.6V607Z" fill="url(#paint35_linear_2123_391)"/>
<path d="M935.9 589H943.1V614.6C943.1 625.5 937.8 629.1 930 629.1C928 629.1 925.5 628.7 924 628.2L924.9 622.4C926.1 622.8 927.7 623.1 929.4 623.1C933.5 623.1 936 621.2 936 614.4V589H935.9Z" fill="url(#paint36_linear_2123_391)"/>
<path d="M964 589V612C964 619.7 967.2 623.3 972.1 623.3C977.3 623.3 980.4 619.7 980.4 612V589H987.6V611.6C987.6 623.8 981.3 629.2 971.8 629.2C962.7 629.2 956.7 624.1 956.7 611.7V589H964Z" fill="url(#paint37_linear_2123_391)"/>
<path d="M1001.5 620.7C1003.8 622 1007.4 623.2 1011.1 623.2C1015.7 623.2 1018.3 621 1018.3 617.8C1018.3 614.8 1016.3 613.1 1011.3 611.2C1004.8 608.9 1000.6 605.4 1000.6 599.7C1000.6 593.3 1006 588.3 1014.5 588.3C1018.8 588.3 1021.9 589.2 1024 590.3L1022.2 596.1C1020.8 595.3 1018 594.2 1014.3 594.2C1009.7 594.2 1007.7 596.7 1007.7 598.9C1007.7 601.9 1010 603.4 1015.3 605.4C1022.2 608 1025.5 611.4 1025.5 617.1C1025.5 623.4 1020.7 628.9 1010.5 628.9C1006.3 628.9 1002 627.7 999.8 626.4L1001.5 620.7Z" fill="url(#paint38_linear_2123_391)"/>
<path d="M1045.5 595H1034.3V589H1064.1V595H1052.7V628.5H1045.5V595Z" fill="url(#paint39_linear_2123_391)"/>
<path d="M1081.8 589V628.5H1074.6V589H1081.8Z" fill="url(#paint40_linear_2123_391)"/>
<path d="M1124.2 627.3C1122.5 628.2 1118.8 629.1 1114 629.1C1101.5 629.1 1093.8 621.2 1093.8 609.2C1093.8 596.2 1102.8 588.3 1114.9 588.3C1119.6 588.3 1123 589.3 1124.5 590.1L1122.9 595.8C1121 595 1118.4 594.3 1115.2 594.3C1107.2 594.3 1101.4 599.3 1101.4 608.8C1101.4 617.5 1106.5 623 1115.2 623C1118.1 623 1121.2 622.4 1123.1 621.5L1124.2 627.3Z" fill="url(#paint41_linear_2123_391)"/>
<path d="M1158.3 611H1143.4V622.6H1160V628.5H1136.2V589H1159.2V594.9H1143.4V605.1H1158.3V611Z" fill="url(#paint42_linear_2123_391)"/>
<path d="M1190.3 589H1213.1V594.9H1197.5V605.8H1212V611.7H1197.5V628.5H1190.3V589Z" fill="url(#paint43_linear_2123_391)"/>
<path d="M1261 608.4C1261 621.6 1253 629.2 1242.1 629.2C1231 629.2 1223.9 620.7 1223.9 609.1C1223.9 597 1231.5 588.4 1242.7 588.4C1254.2 588.4 1261 597.1 1261 608.4ZM1231.5 608.9C1231.5 616.9 1235.5 623.3 1242.5 623.3C1249.5 623.3 1253.4 616.9 1253.4 608.6C1253.4 601.2 1249.7 594.1 1242.5 594.1C1235.3 594.2 1231.5 600.8 1231.5 608.9Z" fill="url(#paint44_linear_2123_391)"/>
<path d="M1273.1 589.5C1275.8 589 1279.8 588.7 1284 588.7C1289.7 588.7 1293.6 589.6 1296.2 591.9C1298.4 593.7 1299.6 596.5 1299.6 599.8C1299.6 604.9 1296.1 608.4 1292.5 609.7V609.9C1295.3 611 1297 613.7 1298 617.5C1299.2 622.4 1300.3 627 1301.1 628.5H1293.7C1293.1 627.3 1292.2 624.1 1291.1 619.2C1290 614 1288.1 612.4 1284 612.3H1280.4V628.5H1273.3V589.5H1273.1ZM1280.2 607H1284.5C1289.4 607 1292.4 604.4 1292.4 600.5C1292.4 596.2 1289.4 594.2 1284.7 594.2C1282.4 594.2 1280.9 594.4 1280.2 594.6V607Z" fill="url(#paint45_linear_2123_391)"/>
<path d="M1338.2 617.3L1334.8 628.5H1327.4L1340 589H1349.2L1362 628.5H1354.3L1350.7 617.3H1338.2ZM1349.5 611.9L1346.4 602.2C1345.6 599.8 1345 597.1 1344.4 594.8H1344.3C1343.7 597.1 1343.1 599.8 1342.4 602.2L1339.4 611.9H1349.5Z" fill="url(#paint46_linear_2123_391)"/>
<path d="M1373.4 589H1380.6V622.5H1396.8V628.5H1373.4V589Z" fill="url(#paint47_linear_2123_391)"/>
<path d="M1408.1 589H1415.3V622.5H1431.5V628.5H1408.1V589Z" fill="url(#paint48_linear_2123_391)"/>
<path d="M139.7 648.4C139.7 666.3 125.2 680.7 107.4 680.7C89.6 680.7 75 666.2 75 648.4C75 630.6 89.5 616.1 107.3 616.1C125.1 616.1 139.7 630.5 139.7 648.4Z" fill="url(#paint49_linear_2123_391)"/>
</g>
<defs>
<linearGradient id="paint0_linear_2123_391" x1="-101.431" y1="249.412" x2="138.569" y2="154.412" gradientUnits="userSpaceOnUse">
<stop stop-color="#FFDEAB"/>
<stop offset="1" stop-color="#D88D28"/>
</linearGradient>
<linearGradient id="paint1_linear_2123_391" x1="-221.345" y1="555.779" x2="308.655" y2="278.278" gradientUnits="userSpaceOnUse">
<stop stop-color="#FBAE42"/>
<stop offset="0.628" stop-color="#D78228"/>
<stop offset="0.9834" stop-color="#7D2918"/>
</linearGradient>
<linearGradient id="paint2_linear_2123_391" x1="-174.101" y1="646.011" x2="355.899" y2="368.51" gradientUnits="userSpaceOnUse">
<stop stop-color="#FBAE42"/>
<stop offset="0.628" stop-color="#D78228"/>
<stop offset="0.9834" stop-color="#7D2918"/>
</linearGradient>
<linearGradient id="paint3_linear_2123_391" x1="-73.9486" y1="318.842" x2="166.052" y2="223.842" gradientUnits="userSpaceOnUse">
<stop stop-color="#FFDEAB"/>
<stop offset="1" stop-color="#D88D28"/>
</linearGradient>
<linearGradient id="paint4_linear_2123_391" x1="55.481" y1="112.782" x2="86.2307" y2="428.532" gradientUnits="userSpaceOnUse">
<stop stop-color="#B5D9F3"/>
<stop offset="1" stop-color="#08C2F3"/>
</linearGradient>
<linearGradient id="paint5_linear_2123_391" x1="129.049" y1="29.032" x2="225.042" y2="213.531" gradientUnits="userSpaceOnUse">
<stop stop-color="#B5D9F3"/>
<stop offset="1" stop-color="#08C2F3"/>
</linearGradient>
<linearGradient id="paint6_linear_2123_391" x1="637.073" y1="398.214" x2="540.406" y2="441.547" gradientUnits="userSpaceOnUse">
<stop stop-color="#0888C5"/>
<stop offset="1" stop-color="#0E426A"/>
</linearGradient>
<linearGradient id="paint7_linear_2123_391" x1="103.212" y1="82.5845" x2="173.663" y2="475.309" gradientUnits="userSpaceOnUse">
<stop stop-color="#08C2F3"/>
<stop offset="0.8086" stop-color="#0888C5"/>
<stop offset="0.9716" stop-color="#0A6C9C"/>
</linearGradient>
<linearGradient id="paint8_linear_2123_391" x1="117.155" y1="79.8392" x2="187.688" y2="473.02" gradientUnits="userSpaceOnUse">
<stop stop-color="#08C2F3"/>
<stop offset="0.8086" stop-color="#0888C5"/>
<stop offset="0.9716" stop-color="#0A6C9C"/>
</linearGradient>
<linearGradient id="paint9_linear_2123_391" x1="284.488" y1="439.007" x2="166.988" y2="439.007" gradientUnits="userSpaceOnUse">
<stop stop-color="#08C2F3"/>
<stop offset="0.8086" stop-color="#0888C5"/>
</linearGradient>
<linearGradient id="paint10_linear_2123_391" x1="632.771" y1="149.604" x2="405.271" y2="97.1044" gradientUnits="userSpaceOnUse">
<stop stop-color="#FBAE42"/>
<stop offset="0.628" stop-color="#D78228"/>
<stop offset="0.9834" stop-color="#7D2918"/>
</linearGradient>
<linearGradient id="paint11_linear_2123_391" x1="453.587" y1="551.106" x2="391.087" y2="351.105" gradientUnits="userSpaceOnUse">
<stop stop-color="#08C2F3"/>
<stop offset="0.8086" stop-color="#0888C5"/>
</linearGradient>
<linearGradient id="paint12_linear_2123_391" x1="600.072" y1="291.302" x2="372.572" y2="238.802" gradientUnits="userSpaceOnUse">
<stop stop-color="#FBAE42"/>
<stop offset="0.628" stop-color="#D78228"/>
<stop offset="0.9834" stop-color="#7D2918"/>
</linearGradient>
<linearGradient id="paint13_linear_2123_391" x1="470.361" y1="170.312" x2="190.361" y2="37.8122" gradientUnits="userSpaceOnUse">
<stop stop-color="#FBAE42"/>
<stop offset="0.628" stop-color="#D78228"/>
<stop offset="0.9834" stop-color="#7D2918"/>
</linearGradient>
<linearGradient id="paint14_linear_2123_391" x1="414.394" y1="288.584" x2="134.393" y2="156.083" gradientUnits="userSpaceOnUse">
<stop stop-color="#FBAE42"/>
<stop offset="0.628" stop-color="#D78228"/>
<stop offset="0.9834" stop-color="#7D2918"/>
</linearGradient>
<linearGradient id="paint15_linear_2123_391" x1="79.4263" y1="110.449" x2="110.176" y2="426.201" gradientUnits="userSpaceOnUse">
<stop stop-color="#B5D9F3"/>
<stop offset="1" stop-color="#08C2F3"/>
</linearGradient>
<linearGradient id="paint16_linear_2123_391" x1="785.548" y1="-33.6394" x2="845.548" y2="506.36" gradientUnits="userSpaceOnUse">
<stop stop-color="#08C2F3"/>
<stop offset="0.8086" stop-color="#0888C5"/>
<stop offset="0.9716" stop-color="#0A6C9C"/>
</linearGradient>
<linearGradient id="paint17_linear_2123_391" x1="937.209" y1="-50.4906" x2="997.209" y2="489.509" gradientUnits="userSpaceOnUse">
<stop stop-color="#08C2F3"/>
<stop offset="0.8086" stop-color="#0888C5"/>
<stop offset="0.9716" stop-color="#0A6C9C"/>
</linearGradient>
<linearGradient id="paint18_linear_2123_391" x1="1054.01" y1="-63.4684" x2="1114.01" y2="476.532" gradientUnits="userSpaceOnUse">
<stop stop-color="#08C2F3"/>
<stop offset="0.8086" stop-color="#0888C5"/>
<stop offset="0.9716" stop-color="#0A6C9C"/>
</linearGradient>
<linearGradient id="paint19_linear_2123_391" x1="1161.16" y1="-75.3744" x2="1221.16" y2="464.625" gradientUnits="userSpaceOnUse">
<stop stop-color="#08C2F3"/>
<stop offset="0.8086" stop-color="#0888C5"/>
<stop offset="0.9716" stop-color="#0A6C9C"/>
</linearGradient>
<linearGradient id="paint20_linear_2123_391" x1="1277.27" y1="-88.2759" x2="1337.27" y2="451.724" gradientUnits="userSpaceOnUse">
<stop stop-color="#08C2F3"/>
<stop offset="0.8086" stop-color="#0888C5"/>
<stop offset="0.9716" stop-color="#0A6C9C"/>
</linearGradient>
<linearGradient id="paint21_linear_2123_391" x1="904.12" y1="83.1607" x2="884.12" y2="543.161" gradientUnits="userSpaceOnUse">
<stop offset="0.007109" stop-color="#DBA627"/>
<stop offset="0.327" stop-color="#91702B"/>
<stop offset="0.9834" stop-color="#7D2918"/>
</linearGradient>
<linearGradient id="paint22_linear_2123_391" x1="1033.04" y1="88.767" x2="1013.04" y2="548.768" gradientUnits="userSpaceOnUse">
<stop offset="0.007109" stop-color="#DBA627"/>
<stop offset="0.327" stop-color="#91702B"/>
<stop offset="0.9834" stop-color="#7D2918"/>
</linearGradient>
<linearGradient id="paint23_linear_2123_391" x1="1147.25" y1="93.7321" x2="1127.25" y2="553.732" gradientUnits="userSpaceOnUse">
<stop offset="0.007109" stop-color="#DBA627"/>
<stop offset="0.327" stop-color="#91702B"/>
<stop offset="0.9834" stop-color="#7D2918"/>
</linearGradient>
<linearGradient id="paint24_linear_2123_391" x1="1228.51" y1="97.2645" x2="1208.51" y2="557.265" gradientUnits="userSpaceOnUse">
<stop offset="0.007109" stop-color="#DBA627"/>
<stop offset="0.327" stop-color="#91702B"/>
<stop offset="0.9834" stop-color="#7D2918"/>
</linearGradient>
<linearGradient id="paint25_linear_2123_391" x1="1318.26" y1="101.167" x2="1298.26" y2="561.168" gradientUnits="userSpaceOnUse">
<stop offset="0.007109" stop-color="#DBA627"/>
<stop offset="0.327" stop-color="#91702B"/>
<stop offset="0.9834" stop-color="#7D2918"/>
</linearGradient>
<linearGradient id="paint26_linear_2123_391" x1="1435.83" y1="106.279" x2="1415.83" y2="566.279" gradientUnits="userSpaceOnUse">
<stop offset="0.007109" stop-color="#DBA627"/>
<stop offset="0.327" stop-color="#91702B"/>
<stop offset="0.9834" stop-color="#7D2918"/>
</linearGradient>
<linearGradient id="paint27_linear_2123_391" x1="782.799" y1="77.8854" x2="762.798" y2="537.886" gradientUnits="userSpaceOnUse">
<stop offset="0.007109" stop-color="#DBA627"/>
<stop offset="0.327" stop-color="#91702B"/>
<stop offset="0.9834" stop-color="#7D2918"/>
</linearGradient>
<linearGradient id="paint28_linear_2123_391" x1="915.185" y1="83.6417" x2="895.185" y2="543.642" gradientUnits="userSpaceOnUse">
<stop offset="0.007109" stop-color="#DBA627"/>
<stop offset="0.327" stop-color="#91702B"/>
<stop offset="0.9834" stop-color="#7D2918"/>
</linearGradient>
<linearGradient id="paint29_linear_2123_391" x1="1048.04" y1="89.4189" x2="1028.04" y2="549.42" gradientUnits="userSpaceOnUse">
<stop offset="0.007109" stop-color="#DBA627"/>
<stop offset="0.327" stop-color="#91702B"/>
<stop offset="0.9834" stop-color="#7D2918"/>
</linearGradient>
<linearGradient id="paint30_linear_2123_391" x1="771.475" y1="77.3933" x2="751.475" y2="537.393" gradientUnits="userSpaceOnUse">
<stop offset="0.007109" stop-color="#DBA627"/>
<stop offset="0.327" stop-color="#91702B"/>
<stop offset="0.9834" stop-color="#7D2918"/>
</linearGradient>
<linearGradient id="paint31_linear_2123_391" x1="719.498" y1="503.129" x2="736.998" y2="688.129" gradientUnits="userSpaceOnUse">
<stop stop-color="#08C2F3"/>
<stop offset="0.8086" stop-color="#0888C5"/>
<stop offset="0.9716" stop-color="#0A6C9C"/>
</linearGradient>
<linearGradient id="paint32_linear_2123_391" x1="761.936" y1="499.115" x2="779.436" y2="684.114" gradientUnits="userSpaceOnUse">
<stop stop-color="#08C2F3"/>
<stop offset="0.8086" stop-color="#0888C5"/>
<stop offset="0.9716" stop-color="#0A6C9C"/>
</linearGradient>
<linearGradient id="paint33_linear_2123_391" x1="800.229" y1="495.493" x2="817.729" y2="680.491" gradientUnits="userSpaceOnUse">
<stop stop-color="#08C2F3"/>
<stop offset="0.8086" stop-color="#0888C5"/>
<stop offset="0.9716" stop-color="#0A6C9C"/>
</linearGradient>
<linearGradient id="paint34_linear_2123_391" x1="835.218" y1="492.183" x2="852.718" y2="677.182" gradientUnits="userSpaceOnUse">
<stop stop-color="#08C2F3"/>
<stop offset="0.8086" stop-color="#0888C5"/>
<stop offset="0.9716" stop-color="#0A6C9C"/>
</linearGradient>
<linearGradient id="paint35_linear_2123_391" x1="872.219" y1="488.679" x2="889.719" y2="673.682" gradientUnits="userSpaceOnUse">
<stop stop-color="#08C2F3"/>
<stop offset="0.8086" stop-color="#0888C5"/>
<stop offset="0.9716" stop-color="#0A6C9C"/>
</linearGradient>
<linearGradient id="paint36_linear_2123_391" x1="921.694" y1="484.004" x2="939.194" y2="669.001" gradientUnits="userSpaceOnUse">
<stop stop-color="#08C2F3"/>
<stop offset="0.8086" stop-color="#0888C5"/>
<stop offset="0.9716" stop-color="#0A6C9C"/>
</linearGradient>
<linearGradient id="paint37_linear_2123_391" x1="960.751" y1="480.309" x2="978.251" y2="665.306" gradientUnits="userSpaceOnUse">
<stop stop-color="#08C2F3"/>
<stop offset="0.8086" stop-color="#0888C5"/>
<stop offset="0.9716" stop-color="#0A6C9C"/>
</linearGradient>
<linearGradient id="paint38_linear_2123_391" x1="999.525" y1="476.634" x2="1017.03" y2="661.641" gradientUnits="userSpaceOnUse">
<stop stop-color="#08C2F3"/>
<stop offset="0.8086" stop-color="#0888C5"/>
<stop offset="0.9716" stop-color="#0A6C9C"/>
</linearGradient>
<linearGradient id="paint39_linear_2123_391" x1="1037.95" y1="473.006" x2="1055.45" y2="658.005" gradientUnits="userSpaceOnUse">
<stop stop-color="#08C2F3"/>
<stop offset="0.8086" stop-color="#0888C5"/>
<stop offset="0.9716" stop-color="#0A6C9C"/>
</linearGradient>
<linearGradient id="paint40_linear_2123_391" x1="1065.12" y1="470.435" x2="1082.62" y2="655.434" gradientUnits="userSpaceOnUse">
<stop stop-color="#08C2F3"/>
<stop offset="0.8086" stop-color="#0888C5"/>
<stop offset="0.9716" stop-color="#0A6C9C"/>
</linearGradient>
<linearGradient id="paint41_linear_2123_391" x1="1096.67" y1="467.445" x2="1114.17" y2="652.451" gradientUnits="userSpaceOnUse">
<stop stop-color="#08C2F3"/>
<stop offset="0.8086" stop-color="#0888C5"/>
<stop offset="0.9716" stop-color="#0A6C9C"/>
</linearGradient>
<linearGradient id="paint42_linear_2123_391" x1="1134.03" y1="463.917" x2="1151.53" y2="648.916" gradientUnits="userSpaceOnUse">
<stop stop-color="#08C2F3"/>
<stop offset="0.8086" stop-color="#0888C5"/>
<stop offset="0.9716" stop-color="#0A6C9C"/>
</linearGradient>
<linearGradient id="paint43_linear_2123_391" x1="1187.49" y1="458.861" x2="1204.99" y2="643.859" gradientUnits="userSpaceOnUse">
<stop stop-color="#08C2F3"/>
<stop offset="0.8086" stop-color="#0888C5"/>
<stop offset="0.9716" stop-color="#0A6C9C"/>
</linearGradient>
<linearGradient id="paint44_linear_2123_391" x1="1227.93" y1="455.03" x2="1245.43" y2="640.033" gradientUnits="userSpaceOnUse">
<stop stop-color="#08C2F3"/>
<stop offset="0.8086" stop-color="#0888C5"/>
<stop offset="0.9716" stop-color="#0A6C9C"/>
</linearGradient>
<linearGradient id="paint45_linear_2123_391" x1="1270.92" y1="450.964" x2="1288.42" y2="635.967" gradientUnits="userSpaceOnUse">
<stop stop-color="#08C2F3"/>
<stop offset="0.8086" stop-color="#0888C5"/>
<stop offset="0.9716" stop-color="#0A6C9C"/>
</linearGradient>
<linearGradient id="paint46_linear_2123_391" x1="1327.38" y1="445.626" x2="1344.88" y2="630.625" gradientUnits="userSpaceOnUse">
<stop stop-color="#08C2F3"/>
<stop offset="0.8086" stop-color="#0888C5"/>
<stop offset="0.9716" stop-color="#0A6C9C"/>
</linearGradient>
<linearGradient id="paint47_linear_2123_391" x1="1367.74" y1="441.809" x2="1385.24" y2="626.809" gradientUnits="userSpaceOnUse">
<stop stop-color="#08C2F3"/>
<stop offset="0.8086" stop-color="#0888C5"/>
<stop offset="0.9716" stop-color="#0A6C9C"/>
</linearGradient>
<linearGradient id="paint48_linear_2123_391" x1="1402.18" y1="438.553" x2="1419.68" y2="623.551" gradientUnits="userSpaceOnUse">
<stop stop-color="#08C2F3"/>
<stop offset="0.8086" stop-color="#0888C5"/>
<stop offset="0.9716" stop-color="#0A6C9C"/>
</linearGradient>
<linearGradient id="paint49_linear_2123_391" x1="103.841" y1="708.151" x2="108.508" y2="628.817" gradientUnits="userSpaceOnUse">
<stop stop-color="#B5D9F3"/>
<stop offset="1" stop-color="#08C2F3"/>
</linearGradient>
<clipPath id="clip0_2123_391">
<rect width="1475" height="725" fill="white"/>
</clipPath>
</defs>
</svg>
